<?xml version="1.0" encoding="utf-8"?>
<!-- Generator: Adobe Illustrator 24.0.1, SVG Export Plug-In . SVG Version: 6.00 Build 0)  -->
<svg version="1.1" id="Слой_1" xmlns="http://www.w3.org/2000/svg" xmlns:xlink="http://www.w3.org/1999/xlink" x="0px" y="0px"
	 viewBox="0 0 47.9 42.3" style="enable-background:new 0 0 47.9 42.3;" xml:space="preserve">
<style type="text/css">
	.st0{fill:#F8F8FE;}
	.st1{fill:none;stroke:#9B63F8;stroke-width:3;}
	.st2{fill:#9B63F8;}
	.st3{fill:#FFFFFF;}
	.st3:hover{fill: #9B63F8;}
	.st1:hover{fill:none;stroke:#9B63F8;stroke-width:3;}
</style>
<path class="st0" d="M109.9,119.4h73c0.7,0,1.2,0,1.2,0v1.6c0,0-0.6,0-1.2,0h-73c-0.7,0-1.2,0-1.2,0v-1.6
	C108.7,119.4,109.2,119.4,109.9,119.4z"/>
<path class="st1" d="M34.3,8.9l-0.4-1l-2-5.7c0,0,0,0,0,0c0-0.1,0-0.1-0.1-0.1c0,0,0,0,0,0H15.7c0,0,0,0,0,0c0,0,0,0-0.1,0.1
	L34.3,8.9z M34.3,8.9h1.1h9.3c0.5,0,1.1,0.5,1.1,1.3l0,0v28.5c0,0.9-0.6,1.3-1.1,1.3H2.9c-0.5,0-1.1-0.5-1.1-1.3V10.3
	c0-0.9,0.6-1.3,1.1-1.3h9.3h1.1l0.4-1l2-5.7L34.3,8.9z"/>
<path class="st1" d="M13.8,23.6c0-5.8,4.7-10.5,10.5-10.5c5.8,0,10.5,4.7,10.5,10.5c0,5.8-4.7,10.5-10.5,10.5S13.8,29.4,13.8,23.6z"
	/>
<path class="st2" d="M22.9,17.7h2.8v12.5h-2.8V17.7z"/>
<path class="st2" d="M18.7,25.5v-3.1H30v3.1H18.7z"/>
<rect x="16.7" y="-11.5" class="st3" width="13.8" height="5.3"/>
<rect x="33.1" y="10.4" class="st3" width="6.2" height="1.4"/>
<rect x="14.3" class="st0" width="1.8" height="0.6"/>
<polygon class="st0" points="8.7,-3.9 5.6,-4.8 4.7,-7.9 7,-10.2 10.2,-9.4 11,-6.2 "/>
<polygon class="st0" points="33.9,-8.9 32.9,-6.9 30.7,-6.9 29.5,-8.9 30.5,-10.8 32.7,-10.8 "/>
<rect x="23.6" y="-10.8" class="st0" width="14" height="6.9"/>
<rect x="16.7" y="3.5" class="st3" width="13.9" height="7.4"/>
<polygon class="st0" points="26,8.6 28.3,6 31.7,6.2 33,9 30.7,11.6 27.3,11.4 "/>
<polygon class="st0" points="33.2,9.1 31.6,9 30.8,10.3 31.5,11.7 33,11.8 33.9,10.5 "/>
</svg>
